<?xml version="1.0" encoding="utf-8"?><!DOCTYPE svg PUBLIC "-//W3C//DTD SVG 1.1//EN" "http://www.w3.org/Graphics/SVG/1.1/DTD/svg11.dtd"><svg xmlns="http://www.w3.org/2000/svg" xmlns:xlink="http://www.w3.org/1999/xlink"><symbol viewBox="0 0 200 96" id="sprites--cloud"><path d="M86.593 33.84a33.426 33.426 0 0 0-7.56-4.8l.837-1.817a35.438 35.438 0 0 1 8.01 5.087l-1.287 1.53z" opacity=".5"/><path d="M99.42 93.25H15.94C6.808 93.16 0 83.84 0 75.5c0-7.376 5.18-15.893 12.993-17.466a15.75 15.75 0 0 1-.055-1.315c0-8.78 7.144-15.924 15.924-15.924 1.9 0 3.753.332 5.52.986A35.396 35.396 0 0 1 65.09 24a35.126 35.126 0 0 1 14.778 3.222l-.836 1.817A33.127 33.127 0 0 0 65.092 26a33.397 33.397 0 0 0-29.388 17.515l-.438.808-.842-.368a13.806 13.806 0 0 0-5.563-1.16c-7.677 0-13.923 6.247-13.923 13.926 0 .66.05 1.335.146 2.007l.146 1.012-1.014.122C7.708 60.664 2 67.972 2 75.502 2 82.784 8.146 91.25 16.07 91.25h83.35c9.648 0 17.38-9.498 19.008-18.297l1.967.363C118.62 82.902 110.098 93.25 99.42 93.25z" opacity=".5"/><path d="M131.014 29.03l1.414 1.415-16.135 16.13-1.414-1.414z"/><path d="M132.912 37.25h-2v-7h-7v-2h9zM100.16 29.027l16.14 16.135-1.415 1.414-16.14-16.134z"/><path d="M100.912 37.25h-2v-9h8v2h-6z"/><g><path d="M114.876 45.164l1.414 1.414-16.133 16.133-1.414-1.413z"/><path d="M106.912 63.25h-8v-9h2v7h6z"/></g><g><path d="M116.293 45.164l16.136 16.132-1.415 1.415L114.88 46.58z"/><path d="M132.912 63.25h-9v-2h7v-7h2z"/></g></symbol><symbol viewBox="0 0 200 96" id="sprites--layers"><path d="M89.457 74H.13l13.415-17.25 1.58 1.23L4.218 72h84.257l22.447-29h-6.315v-2H115z"/><path d="M89.457 95H.13l13.415-17.25 1.58 1.23L4.218 93h84.257l22.447-29h-6.315v-2H115z"/><path d="M89.426 52H0l25.71-30h89.425l-25.71 30zM4.348 50h84.158l22.28-26H26.63L4.347 50z" opacity=".5"/></symbol></svg>