<?xml version="1.0" encoding="utf-8"?>
<!-- Generator: Adobe Illustrator 21.0.2, SVG Export Plug-In . SVG Version: 6.00 Build 0)  -->
<svg version="1.1" id="Layer_1" xmlns="http://www.w3.org/2000/svg" xmlns:xlink="http://www.w3.org/1999/xlink" x="0px" y="0px"
	 viewBox="0 0 132 36" width="132px" height="36px" style="enable-background:new 0 0 132 36;" xml:space="preserve">
<style type="text/css">
	.st0{fill:#FFFFFF;}
</style>
<g>
	<path class="st0" d="M65.6,16.4c1.7-0.7,2.6-2,2.6-3.8c0-1.5-0.7-2.9-1.9-3.7c-1-0.7-2.2-1-3.9-1H54v18.2h8.6
		c1.7,0,2.8-0.2,3.6-0.6c1.6-0.8,2.6-2.6,2.6-4.7C68.9,18.7,67.6,17,65.6,16.4z M58.1,18.3h3.3c1,0,1.6,0,2.1,0.2
		c0.9,0.2,1.5,1.1,1.5,2.1c0,0.9-0.5,1.7-1.3,2.1c-0.5,0.2-1.1,0.3-2.4,0.3h-0.2l0,0h-3V18.3z M58,15.2V11h3.2c1.1,0,1.7,0.1,2,0.2
		c0.9,0.4,1.3,0.9,1.3,1.8c0,0.9-0.4,1.5-1.2,1.9c-0.5,0.2-1,0.3-2,0.3H58z"/>
	<path class="st0" d="M82.6,23.2v-5.5c0-1.2-0.1-2.2-0.5-2.9c-0.7-1.6-2.6-2.5-5.4-2.5c-2.2,0-3.8,0.6-4.8,1.7
		c-0.6,0.6-0.8,1.4-1,2.6v0.3h3.5v-0.2c0.1-1.2,0.9-1.8,2.3-1.8c1.3,0,2.1,0.6,2.1,1.5c0,0.5-0.3,0.9-1.9,1.1
		c-1.9,0.3-3.3,0.6-4.4,1.1c-1.7,0.8-2.6,2.1-2.6,3.6c0,2.3,2.2,4.2,5,4.2c1.5,0,2.8-0.4,4.1-1.4l0.3,1h3.6l0.1-0.1
		C82.7,25.1,82.6,24.7,82.6,23.2z M78.9,19.4v1.3c0,1-0.2,1.4-0.7,1.9c-0.6,0.5-1.4,0.7-2.3,0.7c-1.3,0-2-0.5-2-1.4s0.8-1.4,3.4-2
		h0.1C78.1,19.8,78.5,19.7,78.9,19.4z"/>
	<path class="st0" d="M96.9,23.2v-5.5c0-1.2-0.1-2.2-0.5-2.9c-0.7-1.6-2.6-2.5-5.4-2.5c-2.2,0-3.8,0.6-4.8,1.7
		c-0.6,0.6-0.8,1.4-1,2.6v0.3h3.5v-0.2c0.1-1.2,0.9-1.8,2.3-1.8c1.3,0,2.1,0.6,2.1,1.5c0,0.5-0.3,0.9-1.9,1.1
		c-1.9,0.3-3.3,0.6-4.4,1.1c-1.7,0.8-2.6,2.1-2.6,3.6c0,2.4,2.2,4.2,5,4.2c1.5,0,2.8-0.4,4.1-1.4l0.3,1h3.6l-0.1-0.3
		C97,25.1,96.9,24.7,96.9,23.2z M93.2,19.4v1.3c0,1-0.2,1.4-0.7,1.9c-0.6,0.5-1.4,0.7-2.3,0.7c-1.3,0-2-0.5-2-1.4s0.8-1.4,3.4-2h0.1
		C92.3,19.8,92.8,19.7,93.2,19.4z"/>
	<path class="st0" d="M105.5,17.8c-1.8-0.3-2.4-0.5-2.9-0.7c-0.3-0.2-0.6-0.5-0.6-0.8c0-0.7,0.9-1.3,2.1-1.3c1.4,0,2.2,0.5,2.4,1.7
		v0.2h3.2v-0.2c-0.3-2.7-2.5-4.4-5.8-4.4c-3.1,0-5.4,1.8-5.4,4.4c0,1.2,0.6,2.2,1.6,2.9c0.7,0.5,2,1,4.4,1.4
		c1.9,0.3,2.1,0.6,2.1,1.2c0,0.9-0.9,1.5-2.2,1.5c-1.6,0-2.4-0.6-2.7-2v-0.2h-3.4v0.2c0.3,3,2.6,4.7,6.2,4.7c3.4,0,5.8-1.8,5.8-4.4
		c0-1.2-0.5-2.2-1.3-3C108.2,18.4,107.3,18.1,105.5,17.8z"/>
	<rect x="112.2" y="7.8" class="st0" width="3.6" height="3.3"/>
	<rect x="112.2" y="12.7" class="st0" width="3.6" height="13.4"/>
	<path class="st0" d="M126.8,21.1v0.2c-0.3,1.4-1.1,2.2-2.5,2.2c-1.8,0-2.9-1.5-2.9-4c0-2.4,1.2-4.1,2.9-4.1c1.3,0,2.1,0.6,2.4,2
		v0.2h3.6l-0.1-0.3c-0.8-3.2-2.9-4.9-6.1-4.9c-3.8,0-6.5,3-6.5,7.1s2.8,7,6.6,7c3.3,0,5.6-2,6.2-5.1v-0.2h-3.6V21.1z"/>
</g>
<g>
	<g>
		<path class="st0" d="M29.6,5.5L36.9,18l-7.3,12.6H15L7.7,18L15,5.5H29.6 M32.7,0H11.9L1.5,18l10.4,18h20.8l10.4-18L32.7,0L32.7,0z
			"/>
	</g>
</g>
</svg>
