<?xml version="1.0" encoding="utf-8"?>
<!-- Generator: Adobe Illustrator 21.0.2, SVG Export Plug-In . SVG Version: 6.00 Build 0)  -->
<svg version="1.1" id="Layer_1" xmlns="http://www.w3.org/2000/svg" xmlns:xlink="http://www.w3.org/1999/xlink" x="0px" y="0px"
	 viewBox="0 0 24 24" style="enable-background:new 0 0 24 24;" xml:space="preserve">
<path class="st0" d="M9.7,9H6.5V7.7c0-0.2-0.1-0.4-0.3-0.5C6,7.1,5.8,7.2,5.6,7.3l-4.5,4.3C1.1,11.7,1,11.9,1,12s0.1,0.3,0.2,0.4
	c0,0,4.7,4.4,4.9,4.4c0.1,0,0.1,0,0.2,0c0.2-0.1,0.3-0.3,0.3-0.5V15h3.2c0.3,0,0.5-0.2,0.5-0.5v-5C10.3,9.2,10,9,9.7,9z"/>
<path class="st0" d="M22.8,11.6l-4.5-4.3c-0.2-0.1-0.4-0.2-0.6-0.1s-0.3,0.3-0.3,0.5V9h-3.2c-0.3,0-0.5,0.2-0.5,0.5v5
	c0,0.3,0.2,0.5,0.5,0.5h3.2v1.3c0,0.2,0.1,0.4,0.3,0.5c0.1,0,0.1,0,0.2,0s4.9-4.4,4.9-4.4c0.1-0.1,0.2-0.2,0.2-0.4
	C23,11.9,22.9,11.7,22.8,11.6z"/>
</svg>
