<?xml version="1.0" encoding="utf-8"?>
<!-- Generator: Adobe Illustrator 21.0.2, SVG Export Plug-In . SVG Version: 6.00 Build 0)  -->
<svg version="1.0" id="Layer_1" xmlns="http://www.w3.org/2000/svg" xmlns:xlink="http://www.w3.org/1999/xlink" x="0px" y="0px"
	 viewBox="0 0 24 24" style="enable-background:new 0 0 24 24;" xml:space="preserve">
<style type="text/css">
	.st0{fill:none;stroke:#F16522;stroke-linecap:round;stroke-linejoin:round;stroke-miterlimit:10;}
</style>
<path class="st0" d="M20.5,4h-2c-1.5,0-4,0.5-4.7,1.8c-0.2,0.4-0.4,1.7-0.4,1.7s0,0-1,1c-0.6,0.6-2.2,0.9-3,1
	C7.8,9.7,5,9.7,4.3,11.2C4,12,2.9,14.3,2.9,14.3c-0.4,0.8-0.4,1.7,0,2.4s1.2,1.1,2.1,1.1h2.8c0.4,1.7,1.8,2.9,3.6,2.9
	s3.3-1.3,3.6-2.9h5.5V4z"/>
<path class="st0" d="M13.5,7.5c-0.3,0-6-4-7-3s-1,1-1,1"/>
</svg>
