<?xml version="1.0" encoding="utf-8"?>
<!-- Generator: Adobe Illustrator 21.1.0, SVG Export Plug-In . SVG Version: 6.00 Build 0)  -->
<svg version="1.1" id="Layer_1" xmlns="http://www.w3.org/2000/svg" xmlns:xlink="http://www.w3.org/1999/xlink" x="0px" y="0px"
	 viewBox="0 0 24 24" enable-background="new 0 0 24 24" xml:space="preserve">
<g>
	<path fill="none" d="M9.9,9.5c0.7-0.7,1.3-1.2,1.9-1.8c0.5-0.4,0.9-0.8,1.4-1.3C14,5.5,15,5,16.1,4.9c1.4-0.2,2.8-0.2,4.2-0.3
		c0.3,0,0.4,0.1,0.4,0.4c0,1.4,0,2.8,0,4.2c0,0.3-0.1,0.4-0.4,0.4c-3.4,0-6.7,0-10.1,0C10.2,9.6,10.1,9.6,9.9,9.5z"/>
	<polyline fill="none" points="3.3,6.1 4,4.9 8.8,8.1 	"/>
	<path fill="none" d="M22,2.9c-2.2-0.1-4.4,0.1-6.6,0.5c-1.3,0.2-2.4,0.7-3.4,1.7c-0.9,1-2,1.8-3,2.8C8.4,8.5,7.7,8.9,6.8,9
		c-0.1,0-0.3,0.1-0.4,0.1C5.5,9.4,4.7,9.6,3.9,9.9c-1.2,0.5-1.8,1.5-1.8,2.7C2,13.8,2,15,2,16.1c0.1,1.2,0.7,1.9,1.9,2
		c0.4,0,0.8,0,1.2,0c0.6,0,0.6,0,0.7,0.5c0.6,1.5,2,2.5,3.6,2.5c1.5,0,3-1,3.5-2.5c0.1-0.4,0.3-0.5,0.7-0.5c2.8,0,5.6,0,8.4,0V2.9z"
		/>
</g>
</svg>
