<?xml version="1.0" encoding="utf-8"?>
<!-- Generator: Adobe Illustrator 21.1.0, SVG Export Plug-In . SVG Version: 6.00 Build 0)  -->
<svg version="1.0" id="Layer_1" xmlns="http://www.w3.org/2000/svg" xmlns:xlink="http://www.w3.org/1999/xlink" x="0px" y="0px"
	 viewBox="0 0 136.1 134.6" enable-background="new 0 0 136.1 134.6" xml:space="preserve" width="36px" height="36px">
<g>
	<path fill="#FFFFFF" d="M25.5,29.4h13.1v75.2H25.5V29.4z"/>
	<path fill="#FFFFFF" d="M43.8,77.5c0-18.5,5.4-27.8,16.3-27.8c10.7,0,16.1,9.3,16.1,27.8c0,18.3-5.5,27.7-16.1,27.7
		C49.2,105.2,43.8,95.8,43.8,77.5z M63.8,77.4c0-12.8-0.6-17.2-3.8-17.2c-3,0-4,3.4-4,17.2c0,13,0.7,17.8,4,17.8
		C63.1,95.2,63.8,91.5,63.8,77.4z"/>
	<path fill="#FFFFFF" d="M87.6,40.8h-9.9V29.4h32.8v11.5h-9.8v63.7H87.6V40.8z"/>
</g>
<path fill="#FFFFFF" d="M131.1,5v124.6H5V5H131.1 M136.1,0H0v134.6h136.1V0L136.1,0z"/>
</svg>
