<?xml version="1.0" encoding="utf-8"?>
<!-- Generator: Adobe Illustrator 21.0.2, SVG Export Plug-In . SVG Version: 6.00 Build 0)  -->
<svg version="1.1" id="Layer_1" xmlns="http://www.w3.org/2000/svg" xmlns:xlink="http://www.w3.org/1999/xlink" x="0px" y="0px"
	 viewBox="0 0 24 24" style="enable-background:new 0 0 24 24;" xml:space="preserve">
<path class="st0" d="M6.6,13.3c-0.8,0-1.4-0.6-1.4-1.4s0.6-1.4,1.4-1.4S8,11.1,8,11.9C8,12.7,7.4,13.3,6.6,13.3z M20.8,9.6h-10
	C9.9,8.2,8.4,7.2,6.7,7.2C4.1,7.2,2,9.3,2,11.9s2.1,4.7,4.7,4.7c1.8,0,3.2-0.9,4.1-2.4h1.8h0.6l1.2-1.2l1.2,0.8l1.8-1.9l1.2,1.2
	l1.2-1.2l1.2,1.2l1.2-1.8L20.8,9.6z"/>
</svg>
