<?xml version="1.0" encoding="utf-8"?>
<!-- Generator: Adobe Illustrator 16.0.3, SVG Export Plug-In . SVG Version: 6.00 Build 0)  -->
<!DOCTYPE svg PUBLIC "-//W3C//DTD SVG 1.0//EN" "http://www.w3.org/TR/2001/REC-SVG-20010904/DTD/svg10.dtd">
<svg version="1.0" id="Layer_1" xmlns="http://www.w3.org/2000/svg" xmlns:xlink="http://www.w3.org/1999/xlink" x="0px" y="0px"
	 width="34px" height="24px" viewBox="0 0 34 24" enable-background="new 0 0 34 24" xml:space="preserve">
<g>
	<g>
		<path fill="#899497" d="M10.492,10.425v4.148c0,0,4.035,0,5.682,0c-0.889,2.696-2.277,4.166-5.682,4.166
			c-3.438,0-6.133-2.794-6.133-6.247c0-3.438,2.695-6.23,6.133-6.23c1.823,0,3.002,0.645,4.084,1.533
			c0.872-0.855,0.79-0.984,2.986-3.067C15.707,3.033,13.219,2,10.492,2C4.697,2,0,6.697,0,12.492C0,18.305,4.697,23,10.492,23
			c8.667,0,10.798-7.555,10.088-12.575C18.529,10.425,10.492,10.425,10.492,10.425z M29.425,10.636V6.988h-2.597v3.648h-3.747v2.599
			h3.747v3.729h2.597v-3.729h3.634v-2.599H29.425z"/>
	</g>
</g>
</svg>
