<?xml version="1.0" encoding="utf-8"?>
<!-- Generator: Adobe Illustrator 16.0.3, SVG Export Plug-In . SVG Version: 6.00 Build 0)  -->
<svg version="1.1" id="Layer_1" xmlns="http://www.w3.org/2000/svg" xmlns:xlink="http://www.w3.org/1999/xlink" x="0px" y="0px"
	 width="36px" height="36px" viewBox="913 1249.5 36 36" style="enable-background:new 913 1249.5 36 36" xml:space="preserve">
<style>
    .st0{fill:#ffffff;}
</style>
<path class="st0" d="M942.666,1265.844l-0.255-0.454c0.01-3.262-1.48-4.591-3.219-5.602c0.526-0.141,1.069-0.257,1.218-0.928
	c0.904-0.235,1.093-0.66,1.183-1.11c0.236-0.159,1.027-0.608,0.945-1.381c0.443-0.311,0.69-0.709,0.564-1.273
	c0.476-0.527,0.601-0.963,0.399-1.364c0.571-0.721,0.318-1.095,0.074-1.473c0.428-0.788,0.05-1.633-1.146-1.491
	c-0.476-0.71-1.514-0.549-1.674-0.546c-0.179-0.228-0.417-0.423-1.146-0.329c-0.473-0.428-1.001-0.354-1.545-0.145
	c-0.646-0.51-1.075-0.101-1.564,0.054c-0.783-0.256-0.962,0.094-1.347,0.237c-0.854-0.181-1.114,0.212-1.523,0.626l-0.476-0.009
	c-1.288,0.759-1.928,2.305-2.155,3.1c-0.227-0.795-0.866-2.341-2.154-3.1l-0.476,0.009c-0.41-0.415-0.67-0.807-1.524-0.626
	c-0.385-0.143-0.563-0.494-1.347-0.237c-0.321-0.102-0.616-0.313-0.964-0.302h0c-0.182,0.006-0.378,0.073-0.6,0.249
	c-0.544-0.209-1.073-0.283-1.545,0.145c-0.729-0.095-0.966,0.101-1.146,0.329c-0.16-0.003-1.198-0.164-1.674,0.546
	c-1.196-0.142-1.574,0.703-1.146,1.491c-0.245,0.378-0.498,0.752,0.074,1.474c-0.202,0.4-0.077,0.836,0.399,1.363
	c-0.125,0.564,0.122,0.963,0.564,1.273c-0.083,0.772,0.708,1.222,0.945,1.381c0.09,0.451,0.28,0.876,1.184,1.11
	c0.149,0.671,0.692,0.787,1.218,0.928c-1.738,1.011-3.229,2.34-3.219,5.602l-0.255,0.454c-1.994,1.212-3.787,5.108-0.982,8.276
	c0.184,0.99,0.491,1.703,0.764,2.49c0.409,3.176,3.079,4.663,3.783,4.839c1.032,0.785,2.131,1.531,3.619,2.054
	c1.402,1.446,2.921,1.998,4.448,1.997c0.022,0,3.114-0.551,4.516-1.997c1.487-0.522,2.586-1.269,3.619-2.054
	c0.704-0.176,3.375-1.663,3.783-4.839c0.273-0.787,0.581-1.5,0.764-2.49C946.452,1270.952,944.659,1267.056,942.666,1265.844z
	 M940.862,1265.287c-0.104,1.313-6.848-4.576-5.684-4.771C938.339,1259.981,940.969,1261.859,940.862,1265.287z M933.458,1251.559
	c0.058,0.294,0.124,0.48,0.2,0.536c0.375-0.408,0.681-0.826,1.164-1.219c0.001,0.23-0.115,0.48,0.173,0.664
	c0.259-0.354,0.608-0.669,1.073-0.937c-0.224,0.392-0.039,0.511,0.082,0.673c0.354-0.309,0.692-0.622,1.346-0.864
	c-0.179,0.222-0.429,0.438-0.164,0.691c0.365-0.231,0.733-0.463,1.601-0.628c-0.196,0.222-0.6,0.442-0.355,0.664
	c0.459-0.178,0.967-0.307,1.528-0.382c-0.269,0.225-0.493,0.444-0.272,0.618c0.491-0.153,1.167-0.359,1.828-0.182l-0.418,0.428
	c-0.046,0.057,0.979,0.044,1.655,0.055c-0.246,0.348-0.498,0.685-0.646,1.282c0.067,0.068,0.403,0.03,0.719,0
	c-0.324,0.692-0.887,0.867-1.019,1.163c0.198,0.152,0.473,0.112,0.773,0.009c-0.233,0.489-0.723,0.823-1.11,1.22
	c0.098,0.07,0.269,0.112,0.673,0.063c-0.357,0.386-0.789,0.738-1.3,1.055c0.09,0.106,0.402,0.104,0.691,0.11
	c-0.464,0.459-1.06,0.698-1.619,1c0.279,0.193,0.478,0.147,0.691,0.145c-0.396,0.33-1.067,0.502-1.691,0.701
	c0.119,0.187,0.237,0.238,0.491,0.291c-0.661,0.37-1.606,0.201-1.873,0.391c0.064,0.187,0.246,0.308,0.464,0.41
	c-1.063,0.062-3.971-0.04-4.529-2.274c1.088-1.214,3.075-2.639,6.492-4.4c-2.659,0.902-5.057,2.106-7.064,3.765
	C930.679,1255.489,932.307,1252.675,933.458,1251.559z M930.986,1259.615L930.986,1259.615c1.673-0.019,3.747,1.249,3.738,2.443
	c-0.007,1.054-1.456,1.907-3.725,1.891c-2.223-0.026-3.719-1.072-3.714-2.094C927.289,1261.016,929.1,1259.566,930.986,1259.615z
	 M922.526,1258.715c0.254-0.053,0.373-0.104,0.491-0.291c-0.624-0.199-1.296-0.371-1.691-0.701c0.213,0.003,0.413,0.049,0.691-0.145
	c-0.559-0.302-1.155-0.541-1.618-1c0.289-0.007,0.6-0.004,0.691-0.11c-0.512-0.316-0.943-0.669-1.301-1.055
	c0.404,0.05,0.576,0.008,0.673-0.063c-0.387-0.396-0.875-0.73-1.109-1.22c0.3,0.104,0.575,0.144,0.773-0.009
	c-0.131-0.296-0.694-0.471-1.019-1.163c0.316,0.03,0.651,0.068,0.718,0c-0.146-0.598-0.398-0.935-0.646-1.282
	c0.677-0.011,1.702,0.002,1.655-0.055l-0.418-0.428c0.66-0.178,1.336,0.029,1.828,0.182c0.22-0.174-0.004-0.394-0.273-0.618
	c0.562,0.075,1.069,0.204,1.528,0.382c0.245-0.221-0.159-0.442-0.354-0.664c0.867,0.165,1.235,0.396,1.6,0.627
	c0.265-0.254,0.015-0.47-0.164-0.691c0.654,0.242,0.991,0.555,1.346,0.864c0.12-0.162,0.306-0.281,0.082-0.673
	c0.464,0.268,0.814,0.583,1.073,0.937c0.287-0.184,0.171-0.434,0.172-0.664c0.483,0.393,0.79,0.811,1.164,1.219
	c0.076-0.055,0.142-0.241,0.2-0.536c1.152,1.117,2.778,3.932,0.418,5.047c-2.008-1.656-4.405-2.86-7.062-3.763
	c3.415,1.761,5.401,3.185,6.489,4.398c-0.558,2.234-3.465,2.336-4.529,2.274c0.218-0.103,0.399-0.224,0.464-0.41
	C924.133,1258.916,923.187,1259.085,922.526,1258.715z M926.446,1260.415c1.164,0.195-5.581,6.085-5.684,4.771
	C920.656,1261.759,923.286,1259.881,926.446,1260.415z M919.365,1273.538c-1.639-1.318-2.167-5.18,0.872-6.914
	C922.068,1266.133,920.855,1274.2,919.365,1273.538z M925.754,1280.448c-0.924,0.558-3.169,0.328-4.765-1.965
	c-1.076-1.923-0.937-3.88-0.182-4.455c1.129-0.688,2.875,0.241,4.219,1.8l0,0C926.198,1277.239,926.731,1279.718,925.754,1280.448z
	 M923.938,1272.035c-1.696-1.111-2.002-3.631-0.683-5.627s3.764-2.713,5.46-1.602c1.696,1.111,2.002,3.63,0.683,5.626
	C928.079,1272.429,925.634,1273.146,923.938,1272.035z M930.993,1284.377c-2.034,0.088-4.028-1.666-4.002-2.273
	c-0.03-0.891,2.476-1.587,4.111-1.546l0,0c1.645-0.072,3.851,0.53,3.855,1.328C934.984,1282.66,932.956,1284.411,930.993,1284.377z
	 M935.177,1275.59L935.177,1275.59c0.012,2.085-1.811,3.784-4.072,3.796c-2.261,0.01-4.104-1.671-4.115-3.756
	c0-0.014,0-0.026,0-0.04c-0.012-2.084,1.811-3.783,4.072-3.795c2.261-0.011,4.103,1.671,4.115,3.756V1275.59z M932.61,1270.231
	c-1.319-1.996-1.014-4.515,0.683-5.626s4.141-0.395,5.46,1.602c1.319,1.996,1.013,4.516-0.683,5.627
	S933.929,1272.228,932.61,1270.231z M940.901,1278.595c-1.752,2.432-4.125,2.526-5.008,1.849c-0.924-0.872-0.219-3.578,1.048-5.062
	v-0.001c1.45-1.637,3-2.705,4.079-1.87C941.748,1274.235,942.174,1276.962,940.901,1278.595z M942.273,1273.438
	c-1.49,0.662-2.704-7.405-0.872-6.915C944.439,1268.259,943.912,1272.119,942.273,1273.438z"/>
</svg>
