<?xml version="1.0" encoding="utf-8"?>
<!-- Generator: Adobe Illustrator 21.1.0, SVG Export Plug-In . SVG Version: 6.00 Build 0)  -->
<svg version="1.1" id="Layer_1" xmlns="http://www.w3.org/2000/svg" xmlns:xlink="http://www.w3.org/1999/xlink" x="0px" y="0px"
	 viewBox="0 0 24 24" enable-background="new 0 0 24 24" xml:space="preserve">
<g>
	<path fill="none" d="M15.4,9.5c-0.1,0-0.2,0-0.3,0c-2.9,0-5.8,0-8.7,0c-0.5,0-0.6-0.1-0.6-0.6c0-1.5,0-2.9,0-4.3
		c0-0.2,0-0.5,0.4-0.4c2.8,0.1,5.4,0.8,7.6,2.7c0.7,0.7,1.3,1.5,1.6,2.4C15.5,9.3,15.5,9.3,15.4,9.5C15.5,9.4,15.4,9.4,15.4,9.5z"/>
	<path fill="none" d="M22.2,6.4c-0.3-0.3-0.7-0.7-1-1c-0.4-0.4-0.5-0.4-1,0c-0.9,0.9-1.7,1.8-2.7,2.7c-0.4-0.6-0.9-1.1-1.3-1.6
		c-1.1-1.5-2.6-2.6-4.3-3.3c-1.7-0.7-3.6-0.9-5.5-1.1c-1.5-0.1-3-0.1-4.6,0.1v16.5c1.9,0,3.8,0,5.7,0c0.6,0,0.6,0,0.8,0.6
		c0.7,1.8,2.5,2.9,4.3,2.6c1.7-0.2,2.8-1.3,3.4-2.9c0.1-0.2,0.2-0.3,0.4-0.3c0.6,0,1.2,0,1.8,0c1.1-0.1,1.9-0.7,2.2-1.8
		c0.1-0.3,0.1-0.7,0.1-0.9c0-1.4,0-2.8,0-4.2c0-0.9-0.3-1.6-1.1-2.2c-0.4-0.3-0.9-0.7-1.4-1C19,7.8,19.9,7,20.7,6.1
		c0.2,0.2,0.6,0.5,0.9,0.8c0.2,0.2,0.4,0.3,0.6,0.1C22.4,6.8,22.3,6.6,22.2,6.4z"/>
</g>
</svg>
