<?xml version="1.0" encoding="utf-8"?>
<!-- Generator: Adobe Illustrator 21.0.2, SVG Export Plug-In . SVG Version: 6.00 Build 0)  -->
<svg version="1.1" id="Layer_1" xmlns="http://www.w3.org/2000/svg" xmlns:xlink="http://www.w3.org/1999/xlink" x="0px" y="0px"
	 viewBox="0 0 24 24" style="enable-background:new 0 0 24 24;" xml:space="preserve">
<path class="st0" d="M18.8,11.4L12,4.9c-0.4-0.1-0.7-0.3-1-0.1c-0.3,0.1-0.4,0.4-0.4,0.7v2H5.7C5.3,7.5,5,7.8,5,8.2v7.6
	c0,0.4,0.3,0.7,0.7,0.7h4.8v2c0,0.3,0.1,0.6,0.4,0.7c0.1,0,0.1,0,0.3,0c0.1,0,7.4-6.7,7.4-6.7c0.1-0.1,0.3-0.3,0.3-0.6
	C19.1,11.9,18.9,11.6,18.8,11.4z"/>
</svg>
