<?xml version="1.0" encoding="utf-8"?>
<!-- Generator: Adobe Illustrator 21.0.2, SVG Export Plug-In . SVG Version: 6.00 Build 0)  -->
<svg version="1.1" id="Layer_1" xmlns="http://www.w3.org/2000/svg" xmlns:xlink="http://www.w3.org/1999/xlink" x="0px" y="0px"
	 viewBox="0 0 24 24" style="enable-background:new 0 0 24 24;" xml:space="preserve">
<path class="st0" d="M18,7.4l-4.8,0.1v-2c0-0.3-0.2-0.6-0.5-0.8c-0.3-0.2-0.6,0-0.9,0.2l-6.6,6.7c0,0.2-0.2,0.5-0.2,0.6
	c0,0.1,0.2,0.5,0.3,0.6c0,0,7.3,6.4,7.6,6.4c0.2,0,0.2,0,0.3,0c0.3-0.2,0.5-0.5,0.5-0.8v-2l4.8-0.1c0.5,0,0.8-0.3,0.8-0.8L19,8.1
	C18.9,7.6,18.4,7.4,18,7.4z"/>
</svg>
