<?xml version="1.0" encoding="utf-8"?>
<!-- Generator: Adobe Illustrator 16.0.3, SVG Export Plug-In . SVG Version: 6.00 Build 0)  -->
<!DOCTYPE svg PUBLIC "-//W3C//DTD SVG 1.1//EN" "http://www.w3.org/Graphics/SVG/1.1/DTD/svg11.dtd">
<svg version="1.1" id="Layer_1" xmlns="http://www.w3.org/2000/svg" xmlns:xlink="http://www.w3.org/1999/xlink" x="0px" y="0px"
	 width="200px" height="96px" viewBox="0 0 200 96" enable-background="new 0 0 200 96" xml:space="preserve">
<g opacity="0.5">
	<path fill="#000000" d="M86.593,33.84c-2.299-1.936-4.842-3.55-7.559-4.8l0.836-1.817c2.88,1.325,5.575,3.036,8.011,5.087
		L86.593,33.84z"/>
</g>
<g opacity="0.5">
	<path fill="#000000" d="M99.421,93.25L15.94,93.249C6.808,93.161,0,83.84,0,75.502c0-7.376,5.179-15.893,12.993-17.466
		c-0.037-0.44-0.055-0.882-0.055-1.315c0-8.781,7.144-15.925,15.924-15.925c1.901,0,3.753,0.332,5.519,0.986
		C40.696,30.791,52.381,24,65.092,24c5.156,0,10.128,1.084,14.778,3.222l-0.836,1.817C74.649,27.022,69.958,26,65.092,26
		c-12.275,0-23.536,6.711-29.388,17.515l-0.438,0.808l-0.842-0.368c-1.762-0.77-3.633-1.16-5.563-1.16
		c-7.678,0-13.924,6.247-13.924,13.926c0,0.658,0.049,1.334,0.146,2.006l0.146,1.012l-1.013,0.123C7.708,60.664,2,67.973,2,75.502
		C2,82.784,8.146,91.25,16.071,91.25h83.35c9.647,0,17.378-9.498,19.007-18.297l1.967,0.363
		C118.619,82.902,110.098,93.25,99.421,93.25z"/>
</g>
<g>
	<g>
		<g>
			
				<rect x="122.651" y="26.399" transform="matrix(0.707 0.7072 -0.7072 0.707 62.9692 -76.3721)" fill="#000000" width="2" height="22.815"/>
		</g>
		<g>
			<polygon fill="#000000" points="132.912,37.25 130.912,37.25 130.912,30.25 123.912,30.25 123.912,28.25 132.912,28.25 			"/>
		</g>
	</g>
	<g>
		<g>
			
				<rect x="96.114" y="36.802" transform="matrix(0.7072 0.707 -0.707 0.7072 58.2074 -64.9517)" fill="#000000" width="22.821" height="2"/>
		</g>
		<g>
			<polygon fill="#000000" points="100.912,37.25 98.912,37.25 98.912,28.25 106.912,28.25 106.912,30.25 100.912,30.25 			"/>
		</g>
	</g>
	<g>
		<g>
			
				<rect x="106.517" y="42.531" transform="matrix(0.7071 0.7071 -0.7071 0.7071 69.6317 -60.2279)" fill="#000000" width="2" height="22.816"/>
		</g>
		<g>
			<polygon fill="#000000" points="106.912,63.25 98.912,63.25 98.912,54.25 100.912,54.25 100.912,61.25 106.912,61.25 			"/>
		</g>
	</g>
	<g>
		<g>
			
				<rect x="112.245" y="52.939" transform="matrix(0.7072 0.707 -0.707 0.7072 74.3408 -71.6318)" fill="#000000" width="22.818" height="2"/>
		</g>
		<g>
			<polygon fill="#000000" points="132.912,63.25 123.912,63.25 123.912,61.25 130.912,61.25 130.912,54.25 132.912,54.25 			"/>
		</g>
	</g>
</g>
</svg>
