<?xml version="1.0" encoding="utf-8"?>
<!-- Generator: Adobe Illustrator 21.0.2, SVG Export Plug-In . SVG Version: 6.00 Build 0)  -->
<svg version="1.1" id="Layer_1" xmlns="http://www.w3.org/2000/svg" xmlns:xlink="http://www.w3.org/1999/xlink" x="0px" y="0px"
	 viewBox="0 0 24 24" style="enable-background:new 0 0 24 24;" xml:space="preserve">
<path class="st0" d="M1,14.1h7.2V13H1V14.1z M1,16.8h7.2v-1.1H1V16.8z M1,19.4h7.2v-1.1H1V19.4z M1,11.4h7.2v-1.1H1V11.4z M14.2,6
	c-2,0-3.5,0.8-4.3,2.4c-0.7,1.2-1,2.9-1,5.2s0.3,4,1,5.2c0.9,1.6,2.3,2.4,4.3,2.4c4.1,0,8.8-3.3,8.8-7.6S18.3,6,14.2,6z M14.2,19.7
	c-1.5,0-2.5-0.5-3.1-1.7c-0.6-1-0.8-2.5-0.8-4.5S10.6,10,11.1,9c0.6-1.1,1.6-1.7,3.1-1.7c3.3,0,7.4,2.7,7.4,6.2S17.6,19.7,14.2,19.7
	z M1,8.8h7.2V7.7H1V8.8z"/>
</svg>
