<?xml version="1.0" encoding="utf-8"?>
<!-- Generator: Adobe Illustrator 16.0.3, SVG Export Plug-In . SVG Version: 6.00 Build 0)  -->
<!DOCTYPE svg PUBLIC "-//W3C//DTD SVG 1.1//EN" "http://www.w3.org/Graphics/SVG/1.1/DTD/svg11.dtd">
<svg version="1.1" id="Layer_1" xmlns="http://www.w3.org/2000/svg" xmlns:xlink="http://www.w3.org/1999/xlink" x="0px" y="0px"
	 width="200px" height="96px" viewBox="0 0 200 96" enable-background="new 0 0 200 96" xml:space="preserve">
<g>
	<polygon fill="#000000" points="89.457,74 0.129,74 13.545,56.749 15.125,57.979 4.218,72 88.475,72 110.922,43 104.607,43 
		104.607,41 115,41 	"/>
</g>
<g>
	<polygon fill="#000000" points="89.457,95 0.129,95 13.545,77.749 15.125,78.979 4.218,93 88.475,93 110.922,64 104.607,64 
		104.607,62 115,62 	"/>
</g>
<g opacity="0.5">
	<path fill="#000000" d="M89.426,52H0l25.709-30h89.426L89.426,52z M4.348,50h84.158l22.281-26H26.629L4.348,50z"/>
</g>
</svg>
