<?xml version="1.0" encoding="utf-8"?>
<!-- Generator: Adobe Illustrator 21.0.2, SVG Export Plug-In . SVG Version: 6.00 Build 0)  -->
<svg version="1.1" id="Layer_1" xmlns="http://www.w3.org/2000/svg" xmlns:xlink="http://www.w3.org/1999/xlink" x="0px" y="0px"
	 viewBox="0 0 24 24" style="enable-background:new 0 0 24 24;" xml:space="preserve">
<g>
	<path class="st0" d="M0.8,18.8l0.4,1L8.3,17l-0.4-1L0.8,18.8z M0.8,16l0.4,1l7.1-2.8l-0.4-1L0.8,16z M0.8,13.1l0.4,1l7.1-2.8
		l-0.4-1L0.8,13.1z M0.8,7.5l0.4,1l7.1-2.8l-0.4-1L0.8,7.5z M0.8,10.3l0.4,1l7.1-2.8l-0.4-1L0.8,10.3z M14.4,3.6
		c-2,0-3.4,0.8-4.3,2.3c-0.7,1.2-1,2.9-1,5.1s0.3,3.9,1,5.1c0.9,1.5,2.3,2.3,4.3,2.3c4,0,8.6-3.2,8.6-7.4S18.4,3.6,14.4,3.6z
		 M14.4,17c-1.5,0-2.4-0.5-3.1-1.6c-0.6-1-0.8-2.4-0.8-4.4s0.3-3.4,0.8-4.4C11.9,5.5,12.9,5,14.4,5c3.3,0,7.3,2.7,7.3,6.1
		C21.6,14.3,17.6,17,14.4,17z"/>
</g>
</svg>
