<?xml version="1.0" encoding="utf-8"?>
<!-- Generator: Adobe Illustrator 21.0.2, SVG Export Plug-In . SVG Version: 6.00 Build 0)  -->
<svg version="1.0" id="Layer_1" xmlns="http://www.w3.org/2000/svg" xmlns:xlink="http://www.w3.org/1999/xlink" x="0px" y="0px"
	 viewBox="0 0 24 24" style="enable-background:new 0 0 24 24;" xml:space="preserve">
<style type="text/css">
	.st0{fill:none;stroke:#F16522;stroke-linecap:round;stroke-linejoin:round;stroke-miterlimit:10;}
</style>
<path class="st0" d="M13.5,7.5c0.3,0,6-4,7-3s1,1,1,1"/>
<path class="st0" d="M17.5,8.5c-1.1-0.2-3.1-0.4-4-1l-1-1C11.2,5.7,9.1,5,7.7,5H3.5v13.7h4.9c0.4,1.7,1.8,2.9,3.6,2.9
	c1.9,0,3.4-1.4,3.7-3.2c0.7-0.1,1.4-0.3,1.9-0.5c1.5-0.5,2.7-2.3,2.7-4v-2.6C20.2,9.5,18.5,8.7,17.5,8.5z"/>
</svg>
