<?xml version="1.0" encoding="utf-8"?>
<!-- Generator: Adobe Illustrator 21.1.0, SVG Export Plug-In . SVG Version: 6.00 Build 0)  -->
<svg version="1.0" id="Layer_1" xmlns="http://www.w3.org/2000/svg" xmlns:xlink="http://www.w3.org/1999/xlink" x="0px" y="0px" width="132px" height="36px"
	 viewBox="0 0 132.3 36.9" enable-background="new 0 0 132.3 36.9" xml:space="preserve">
<g>
	<g>
		<g>
			<path fill="#414646" stroke="#414646" stroke-width="0.4059" stroke-miterlimit="10" d="M54.1,8.3h8.3c1.7,0,2.9,0.3,3.9,1
				c1.2,0.8,1.9,2.2,1.9,3.6c0,2-1.1,3.3-3.2,3.9c2.4,0.5,3.9,2.2,3.9,4.5c0,2-1,3.8-2.6,4.6c-0.8,0.4-1.9,0.6-3.6,0.6h-8.6V8.3z
				 M61.1,15.7c1.2,0,1.7-0.1,2.3-0.3c0.9-0.4,1.4-1.1,1.4-2.1s-0.5-1.6-1.5-2c-0.4-0.1-1-0.2-2.1-0.2h-3.5v4.5H61.1z M61.3,23.7
				c1.3,0,1.9-0.1,2.5-0.3c0.9-0.4,1.5-1.2,1.5-2.3c0-1.1-0.6-2.1-1.7-2.4c-0.5-0.2-1.1-0.2-2.2-0.2h-3.6v5.3H61.3z"/>
			<path fill="#414646" stroke="#414646" stroke-width="0.4059" stroke-miterlimit="10" d="M71.4,17.2c0.2-1.3,0.4-2,1-2.6
				c1-1.1,2.6-1.7,4.8-1.7c2.7,0,4.6,0.8,5.3,2.4c0.4,0.7,0.5,1.6,0.5,2.9v5.6c0,1.6,0.1,2,0.4,2.8h-3.2l-0.4-1.2
				c-1.4,1.1-2.7,1.6-4.3,1.6c-2.7,0-4.9-1.8-4.9-4.1c0-1.5,0.9-2.7,2.5-3.5c1-0.5,2.4-0.8,4.4-1.1c1.5-0.2,2.1-0.5,2.1-1.3
				c0-1-1-1.7-2.4-1.7c-1.6,0-2.5,0.7-2.6,2H71.4z M79.7,19.5c-0.6,0.4-1,0.5-2.1,0.8C74.9,21,74,21.5,74,22.6c0,1,0.9,1.6,2.3,1.6
				c1,0,1.9-0.3,2.5-0.8c0.6-0.5,0.8-1,0.8-2.1V19.5z"/>
			<path fill="#414646" stroke="#414646" stroke-width="0.4059" stroke-miterlimit="10" d="M86,17.2c0.2-1.3,0.4-2,1-2.6
				c1-1.1,2.6-1.7,4.8-1.7c2.7,0,4.6,0.8,5.3,2.4c0.4,0.7,0.5,1.6,0.5,2.9v5.6c0,1.6,0.1,2,0.4,2.8h-3.2l-0.4-1.2
				c-1.4,1.1-2.7,1.6-4.3,1.6c-2.7,0-4.9-1.8-4.9-4.1c0-1.5,0.9-2.7,2.5-3.5c1-0.5,2.4-0.8,4.4-1.1c1.5-0.2,2.1-0.5,2.1-1.3
				c0-1-1-1.7-2.4-1.7c-1.6,0-2.5,0.7-2.6,2H86z M94.3,19.5c-0.6,0.4-1,0.5-2.1,0.8c-2.7,0.7-3.6,1.2-3.6,2.3c0,1,0.9,1.6,2.3,1.6
				c1,0,1.9-0.3,2.5-0.8c0.6-0.5,0.8-1,0.8-2.1V19.5z"/>
			<path fill="#414646" stroke="#414646" stroke-width="0.4059" stroke-miterlimit="10" d="M108,17.2c-0.3-1.3-1.2-1.9-2.7-1.9
				c-1.4,0-2.4,0.6-2.4,1.5c0,0.4,0.3,0.8,0.7,1c0.5,0.2,1.1,0.4,3,0.7c1.9,0.3,2.7,0.6,3.5,1.2c0.8,0.7,1.3,1.7,1.3,2.9
				c0,2.6-2.3,4.3-5.7,4.3c-3.6,0-5.8-1.7-6.1-4.6h3.1c0.3,1.5,1.2,2.2,3,2.2c1.5,0,2.5-0.7,2.5-1.7c0-0.8-0.5-1.1-2.3-1.4
				c-2.1-0.4-3.6-0.8-4.4-1.4c-1.1-0.7-1.6-1.7-1.6-2.8c0-2.5,2.2-4.3,5.3-4.3c3.3,0,5.4,1.6,5.7,4.3H108z"/>
			<path fill="#414646" stroke="#414646" stroke-width="0.4059" stroke-miterlimit="10" d="M117,8.2v3h-3.3v-3H117z M117,13.2v13.3
				h-3.3V13.2H117z"/>
			<path fill="#414646" stroke="#414646" stroke-width="0.4059" stroke-miterlimit="10" d="M132,21.8c-0.5,3.1-2.8,5.1-6.1,5.1
				c-3.8,0-6.6-2.9-6.6-7c0-4.1,2.7-7.1,6.5-7.1c3.1,0,5.2,1.7,6,4.9h-3.3c-0.4-1.5-1.3-2.2-2.7-2.2c-1.9,0-3.2,1.8-3.2,4.4
				s1.2,4.3,3.2,4.3c1.5,0,2.5-0.8,2.8-2.4H132z"/>
		</g>
	</g>
	<g>
		<g>
			<path fill="#00C3E6" d="M28.8,5.6l7.5,12.9l-7.5,12.9H13.9L6.4,18.5l7.5-12.9H28.8 M32,0H10.7L0,18.5l10.7,18.5H32l10.7-18.5
				L32,0L32,0z"/>
		</g>
	</g>
</g>
</svg>
