<?xml version="1.0" encoding="utf-8"?>
<!-- Generator: Adobe Illustrator 21.1.0, SVG Export Plug-In . SVG Version: 6.00 Build 0)  -->
<svg version="1.0" id="Layer_1" xmlns="http://www.w3.org/2000/svg" xmlns:xlink="http://www.w3.org/1999/xlink" x="0px" y="0px"
	 viewBox="0 0 136.1 134.6" enable-background="new 0 0 136.1 134.6" xml:space="preserve" width="40px" height="40px">
<g>
	<path fill="#FFFFFF" d="M110.1,28.3C98.9,17.1,83.9,10.9,68,10.9c-32.8,0-59.5,26.7-59.5,59.5c0,15.9,6.2,30.8,17.4,42.1
		c11.2,11.2,26.2,17.4,42.1,17.4s30.8-6.2,42.1-17.4c11.2-11.2,17.4-26.2,17.4-42.1S121.4,39.6,110.1,28.3z M68,127.9
		c-15.4,0-29.8-6-40.6-16.8c-10.9-10.9-16.8-25.3-16.8-40.6c0-15.3,6-29.8,16.8-40.6C38.3,18.9,52.7,12.9,68,12.9s29.8,6,40.6,16.8
		c10.9,10.9,16.8,25.3,16.8,40.6C125.5,102.1,99.7,127.9,68,127.9z"/>
	<g>
		<path fill="#FFFFFF" d="M35.1,70.4H68V37.5C49.8,37.5,35.1,52.2,35.1,70.4z"/>
		<path fill="#FFFFFF" d="M68,70.4v32.9c18.2,0,32.9-14.7,32.9-32.9H68z"/>
	</g>
	<path fill="#FFFFFF" d="M32,35.8c0.5-0.6,1.6-0.6,2.3,0c0.8,0.7,0.8,1.6,0.3,2.2l-4.2,5l-2.6-2.2L32,35.8z"/>
	<path fill="#FFFFFF" d="M39.5,41.7L35.1,47l-2.8-2.3l4.5-5.3c0.5-0.6,1.6-0.8,2.4-0.1C40,39.9,40.1,41,39.5,41.7z"/>
	<path fill="#FFFFFF" d="M68,15.3c-30.4,0-55.1,24.7-55.1,55.1s24.7,55.1,55.1,55.1s55.1-24.7,55.1-55.1S98.5,15.3,68,15.3z
		 M60,18.3h4.4l3.9,10.3l3.9-10.3h4.4v14.5h-2.9V22.7l-3.8,10.1h-3.2l-3.8-10.1v10.1H60V18.3z M23.4,42.2l7.1-8.4
		c1.5-1.7,3.5-3.1,5.5-1.5c0.6,0.5,0.9,0.7,1.6,2c0.2,0.5,0.3,1.3,0,2.2c1.7-1,3.5-0.7,4.7,0.4c1.8,1.7,1.5,3.8-0.2,5.8l-7.5,8.9
		L23.4,42.2z M68,105.6c-19.4,0-35.2-15.8-35.2-35.2C32.8,51,48.6,35.2,68,35.2s35.2,15.8,35.2,35.2C103.2,89.8,87.5,105.6,68,105.6
		z M100.8,51.8l-2.6-3.3l5.2-7.7l0,0l-8.6,3.5l-2.7-3.3l9.1-11.7l2.2,2.8l-5.7,7.5l8.7-3.7l2.4,3l-5.5,7.7l8.5-4l2.2,2.8L100.8,51.8
		z"/>
</g>
</svg>
