<?xml version="1.0" encoding="utf-8"?>
<!-- Generator: Adobe Illustrator 21.0.2, SVG Export Plug-In . SVG Version: 6.00 Build 0)  -->
<svg version="1.0" id="Layer_1" xmlns="http://www.w3.org/2000/svg" xmlns:xlink="http://www.w3.org/1999/xlink" x="0px" y="0px"
	 viewBox="0 0 984 361" enable-background="new 0 0 984 361" xml:space="preserve">
<g>
	<path fill="none" stroke="#FFFFFF" stroke-linecap="round" stroke-linejoin="round" stroke-miterlimit="10" d="M325.5,221.5
		c0,0,23.7,5.7,132,9.5"/>
	
		<circle fill="none" stroke="#FFFFFF" stroke-linecap="round" stroke-linejoin="round" stroke-miterlimit="10" cx="355.9" cy="205.3" r="16.2"/>
	
		<circle fill="none" stroke="#FFFFFF" stroke-linecap="round" stroke-linejoin="round" stroke-miterlimit="10" cx="630.4" cy="206.3" r="15.2"/>
	
		<circle fill="none" stroke="#FFFFFF" stroke-linecap="round" stroke-linejoin="round" stroke-miterlimit="10" cx="395.8" cy="207.3" r="16.2"/>
	
		<circle fill="none" stroke="#FFFFFF" stroke-linecap="round" stroke-linejoin="round" stroke-miterlimit="10" cx="592.4" cy="207.3" r="16.2"/>
	<path fill="none" stroke="#FFFFFF" stroke-linecap="round" stroke-linejoin="round" stroke-miterlimit="10" d="M605.7,133.2
		c0,0,30.4,13.3,35.2,16.2c5.2,3.2,28.5,18,25.7,36.1c-11.4,2.8-130.1,3.8-130.1,3.8"/>
	<path fill="none" stroke="#FFFFFF" stroke-linecap="round" stroke-linejoin="round" stroke-miterlimit="10" d="M528.7,231
		c0,0,122.5-4.7,133-9.5"/>
	<path fill="none" stroke="#FFFFFF" stroke-linecap="round" stroke-linejoin="round" stroke-miterlimit="10" d="M484.8,232.6
		l-18-1.2c-2.5-0.2-4.4-2.3-4.4-4.7v-34.2c0-2.8,2.4-5,5-4.7l18,1.2c2.5,0.2,4.4,2.3,4.4,4.7v34.2
		C489.8,230.5,487.5,232.7,484.8,232.6z"/>
	<path fill="none" stroke="#FFFFFF" stroke-linecap="round" stroke-linejoin="round" stroke-miterlimit="10" d="M501.6,232.6l18-1.2
		c2.5-0.2,4.4-2.3,4.4-4.7v-34.2c0-2.8-2.4-5-5-4.7l-18,1.2c-2.5,0.2-4.4,2.3-4.4,4.7v34.2C496.5,230.5,498.8,232.7,501.6,232.6z"/>
	<path fill="none" stroke="#FFFFFF" stroke-linecap="round" stroke-linejoin="round" stroke-miterlimit="10" d="M454.7,181.6
		c0,0,3.8-44.6,10.5-49.4"/>
	<path fill="none" stroke="#FFFFFF" stroke-linecap="round" stroke-linejoin="round" stroke-miterlimit="10" d="M530.7,181.6
		c0,0-3.8-44.6-10.5-49.4"/>
	<path fill="none" stroke="#FFFFFF" stroke-linecap="round" stroke-linejoin="round" stroke-miterlimit="10" d="M310.3,234.8
		c0,0-3.8,2.8,7.6,4.7c11.5,1.9,168.1,12.4,174.8,12.4c6.7,0,174.8-7.6,179.5-10.5c4.7-2.8,0-3.8,0-3.8"/>
	<path fill="none" stroke="#FFFFFF" stroke-linecap="round" stroke-linejoin="round" stroke-miterlimit="10" d="M325.5,256.6
		c0,1,14.2,19.9,14.2,19.9l81.7,8.5"/>
	<path fill="none" stroke="#FFFFFF" stroke-linecap="round" stroke-linejoin="round" stroke-miterlimit="10" d="M657.9,256.6
		c0,1-14.2,19.9-14.2,19.9l-81.7,8.5"/>
	<path fill="none" stroke="#FFFFFF" stroke-linecap="round" stroke-linejoin="round" stroke-miterlimit="10" d="M557.6,294.6H426.7
		c-1.4,0-2.4-1.1-2.4-2.4v-24.5c0-1.4,1.1-2.4,2.4-2.4h131c1.4,0,2.4,1.1,2.4,2.4v24.5C560.1,293.6,559,294.6,557.6,294.6z"/>
	<path fill="none" stroke="#FFFFFF" stroke-linecap="round" stroke-linejoin="round" stroke-miterlimit="10" d="M339.7,276.6
		c0,0-4.7,8.5-3.8,10.5c0.9,2,1.9,5.7,12.4,6.7c10.5,0.9,144.4,13.2,144.4,13.2s151.1-14.2,152.9-15.2c1.9-1,1-15.2-1.9-15.2"/>
	<path fill="none" stroke="#FFFFFF" stroke-linecap="round" stroke-linejoin="round" stroke-miterlimit="10" d="M602.8,131.2
		c-2.8-7.6-38.1-48.8-43.7-50.4c-14.2-3.8-108.3-3.8-124.4,0c-2.8,0-46.6,50.4-46.6,50.4s-69.3,16.2-69.3,53.2l131.1,4.7"/>
	<path fill="none" stroke="#FFFFFF" stroke-linecap="round" stroke-linejoin="round" stroke-miterlimit="10" d="M397.7,127.5
		c0,0,99.7-10.5,200.4,2.8"/>
	<path fill="none" stroke="#FFFFFF" stroke-linecap="round" stroke-linejoin="round" stroke-miterlimit="10" d="M658.2,190.7
		c0,0,1.7,13.7-4.3,28.2c7.7-0.9,7.7-0.9,7.7-0.9s6.8-12.8,4.3-28.2L658.2,190.7z"/>
	<path fill="none" stroke="#FFFFFF" stroke-linecap="round" stroke-linejoin="round" stroke-miterlimit="10" d="M326.9,189.8
		c0,0-1.7,13.7,4.3,28.2c-7.7-0.9-7.7-0.9-7.7-0.9s-6.8-12.8-4.3-28.2L326.9,189.8z"/>
	<path fill="none" stroke="#FFFFFF" stroke-linecap="round" stroke-linejoin="round" stroke-miterlimit="10" d="M395.8,120.8
		c0,0-1.9-3.8-3.8-3.8c-1.9,0-11.4,0-13.3,0c-1.9,0-3.8,2.8-3.8,3.8c0,1,0,4.7,0,4.7s0,4.7,2.8,4.7s11.3,0,11.3,0"/>
	<path fill="none" stroke="#FFFFFF" stroke-linecap="round" stroke-linejoin="round" stroke-miterlimit="10" d="M597.1,120.8
		c0,0,1.9-3.8,3.8-3.8c2,0,11.4,0,13.3,0c1.9,0,3.8,2.8,3.8,3.8c0,1,0,4.7,0,4.7s0,4.7-2.8,4.7c-2.8,0-11.3,0-11.3,0"/>
	<polygon fill="none" stroke="#FFFFFF" stroke-linecap="round" stroke-linejoin="round" stroke-miterlimit="10" points="
		390.4,274.9 356.2,271.2 345.1,258.4 389.5,263 	"/>
	<polygon fill="none" stroke="#FFFFFF" stroke-linecap="round" stroke-linejoin="round" stroke-miterlimit="10" points="593,274.9 
		627.2,271.2 638.3,258.4 593.9,263 	"/>
	
		<ellipse fill="none" stroke="#FFFFFF" stroke-linecap="round" stroke-linejoin="round" stroke-miterlimit="10" cx="355.9" cy="205.3" rx="12.5" ry="12.4"/>
	
		<ellipse fill="none" stroke="#FFFFFF" stroke-linecap="round" stroke-linejoin="round" stroke-miterlimit="10" cx="630.4" cy="206.3" rx="11.8" ry="11.6"/>
	
		<ellipse fill="none" stroke="#FFFFFF" stroke-linecap="round" stroke-linejoin="round" stroke-miterlimit="10" cx="395.8" cy="207.3" rx="12.5" ry="12.4"/>
	
		<ellipse fill="none" stroke="#FFFFFF" stroke-linecap="round" stroke-linejoin="round" stroke-miterlimit="10" cx="592.4" cy="207.3" rx="12.5" ry="12.4"/>
</g>
<line fill="none" stroke="#FF4553" stroke-linecap="round" stroke-miterlimit="10" x1="718.7" y1="341.2" x2="740.4" y2="341.2"/>
<line fill="none" stroke="#FF4553" stroke-linecap="round" stroke-miterlimit="10" x1="704.2" y1="341.2" x2="713.9" y2="341.2"/>
<line fill="none" stroke="#FF4553" stroke-linecap="round" stroke-miterlimit="10" x1="693" y1="350" x2="718.7" y2="350"/>
<line fill="none" stroke="#FFFFFF" stroke-linecap="round" stroke-miterlimit="10" x1="267.3" y1="337.2" x2="284.1" y2="337.2"/>
<polygon fill="none" stroke="#FF4553" stroke-linecap="round" stroke-miterlimit="10" points="501.7,30.4 510.1,16 518.4,30.4 "/>
<line fill="none" stroke="#FFFFFF" stroke-linecap="round" stroke-miterlimit="10" x1="215.6" y1="58.5" x2="229.3" y2="58.5"/>
<line fill="none" stroke="#FFFFFF" stroke-linecap="round" stroke-miterlimit="10" x1="204.4" y1="58.5" x2="211.6" y2="58.5"/>
<line fill="none" stroke="#FFFFFF" stroke-linecap="round" stroke-miterlimit="10" x1="195.5" y1="58.5" x2="200.4" y2="58.5"/>
<line fill="none" stroke="#FFFFFF" stroke-linecap="round" stroke-miterlimit="10" x1="230.9" y1="67.3" x2="239.7" y2="67.3"/>
<line fill="none" stroke="#FFFFFF" stroke-linecap="round" stroke-miterlimit="10" x1="206" y1="67.3" x2="223.6" y2="67.3"/>
<line fill="none" stroke="#FF4553" stroke-miterlimit="10" x1="168.5" y1="280.2" x2="134.8" y2="280.2"/>
<line fill="none" stroke="#FF4553" stroke-miterlimit="10" x1="133.2" y1="289" x2="124.4" y2="289"/>
<line fill="none" stroke="#FF4553" stroke-miterlimit="10" x1="158.1" y1="289" x2="140.4" y2="289"/>
<line fill="none" stroke="#FFFFFF" stroke-linecap="round" stroke-miterlimit="10" x1="855.5" y1="137.2" x2="821.8" y2="137.2"/>
<line fill="none" stroke="#FFFFFF" stroke-linecap="round" stroke-miterlimit="10" x1="820.2" y1="146" x2="811.4" y2="146"/>
<line fill="none" stroke="#FFFFFF" stroke-linecap="round" stroke-miterlimit="10" x1="845.1" y1="146" x2="827.4" y2="146"/>
<line fill="none" stroke="#FFFFFF" stroke-linecap="round" stroke-miterlimit="10" x1="196.3" y1="76.1" x2="218" y2="76.1"/>
<line fill="none" stroke="#FFFFFF" stroke-linecap="round" stroke-miterlimit="10" x1="184.3" y1="76.1" x2="191.5" y2="76.1"/>
<circle fill="none" stroke="#FFFFFF" stroke-linecap="round" stroke-miterlimit="10" cx="743.1" cy="47.3" r="10.7"/>
</svg>
